# xmcd
#
# Track frame offsets: 
#        300
#        24891
#        45493
#        62761
#        85989
#        106111
#        132247
#        153572
#        173478
#        190758
#        215271
#
# Disc length: 3020 seconds
#
# Revision: 0
# Processed by: cddbd v1.5.2PL0 Copyright (c) Steve Scherf et al.
# Submitted via: ExactAudioCopy v0.99pb5
#
DISCID=840bc80b
DTITLE=Flag - Blue Norther
DYEAR=2005
DGENRE=Blues
TTITLE0=Jasmin
TTITLE1=Lei, L'Autostoppista
TTITLE2=I Belive In Love
TTITLE3=TV News
TTITLE4=Piangi E Sorridi
TTITLE5=You're Gonna Miss Me
TTITLE6=What's The Matter?
TTITLE7=Listen And Drink
TTITLE8=Brother Sun
TTITLE9=Blue Norther
TTITLE10=Bye Bye
EXTD=
EXTT0=
EXTT1=
EXTT2=
EXTT3=
EXTT4=
EXTT5=
EXTT6=
EXTT7=
EXTT8=
EXTT9=
EXTT10=
PLAYORDER=
